# https://github.com/mikedh/trimesh
v -0.49646505 0.82687555 -0.01279503
v 0.50719959 0.84285461 -0.02753372
v -0.51302809 -0.85509526 -0.02941613
v 0.50541953 -0.84438053 0.01676253
v 0.03993462 -0.46745386 0.85893900
v -0.01979076 0.48309019 0.85600504
v -0.01625882 -0.53403826 -0.86289274
v -0.00281582 0.54705072 -0.84750984
v 0.84747811 -0.02071308 -0.55922477
v 0.84092465 -0.00107565 0.56108971
v -0.84804532 0.01965479 -0.53571702
v -0.87434968 -0.01930234 0.51122659
v 0.04256939 0.98357227 0.01676978
v -0.01805854 -0.98136854 0.00769902
v -0.31214975 -0.80983224 0.48690425
v 0.31793844 -0.81811666 0.47548788
v -0.33457575 0.81246875 0.53158183
v 0.31221683 0.80664423 0.50571652
v 0.02612003 0.00438765 0.99178146
v -0.28689122 -0.80044187 -0.46928488
v 0.31268168 -0.83350638 -0.52736318
v -0.27599844 0.84349031 -0.50359038
v 0.30135325 0.83824588 -0.52214091
v -0.01789454 0.01286654 -1.00789210
v 0.80891456 0.49673114 -0.30226550
v 0.83716663 -0.49818830 -0.29613822
v 0.45899656 -0.30999136 -0.82588160
v 0.47562374 0.29145395 -0.81569946
v 0.82733505 0.47347215 0.30962962
v 0.79933361 -0.50655346 0.32907215
v 0.51076231 -0.28226903 0.80592688
v 0.48608115 0.30453982 0.81386693
v 1.00353147 -0.02168776 0.00180980
v -0.80445243 0.55034948 -0.27148010
v -0.82608186 -0.50574767 -0.33828583
v -0.51181414 -0.30270489 -0.78489992
v -0.51458168 0.29593407 -0.85196277
v -0.81227031 0.47875171 0.29842821
v -0.82655421 -0.50188525 0.27386243
v -0.52934090 -0.26643205 0.78326854
v -0.52193571 0.34575526 0.86711834
v -1.02343133 -0.00736498 0.00683111
f 1 38 17
f 38 12 41
f 17 41 6
f 38 41 17
f 1 17 13
f 17 6 18
f 13 18 2
f 17 18 13
f 1 13 22
f 13 2 23
f 22 23 8
f 13 23 22
f 1 22 34
f 22 8 37
f 34 37 11
f 22 37 34
f 1 34 38
f 34 11 42
f 38 42 12
f 34 42 38
f 2 18 29
f 18 6 32
f 29 32 10
f 18 32 29
f 6 41 19
f 41 12 40
f 19 40 5
f 41 40 19
f 12 42 39
f 42 11 35
f 39 35 3
f 42 35 39
f 11 37 36
f 37 8 24
f 36 24 7
f 37 24 36
f 8 23 28
f 23 2 25
f 28 25 9
f 23 25 28
f 4 30 16
f 30 10 31
f 16 31 5
f 30 31 16
f 4 16 14
f 16 5 15
f 14 15 3
f 16 15 14
f 4 14 21
f 14 3 20
f 21 20 7
f 14 20 21
f 4 21 26
f 21 7 27
f 26 27 9
f 21 27 26
f 4 26 30
f 26 9 33
f 30 33 10
f 26 33 30
f 5 31 19
f 31 10 32
f 19 32 6
f 31 32 19
f 3 15 39
f 15 5 40
f 39 40 12
f 15 40 39
f 7 20 36
f 20 3 35
f 36 35 11
f 20 35 36
f 9 27 28
f 27 7 24
f 28 24 8
f 27 24 28
f 10 33 29
f 33 9 25
f 29 25 2
f 33 25 29

