# https://github.com/mikedh/trimesh
v -0.51963677 0.82985113 0.01500902
v 0.54454241 0.81163010 -0.02604359
v -0.52317430 -0.85697566 -0.00033602
v 0.50867023 -0.83306285 0.01555584
v 0.00132061 -0.50318629 0.86000100
v -0.01718585 0.53310613 0.83147316
v 0.01756901 -0.52672963 -0.85434806
v -0.01361859 0.55018194 -0.85374140
v 0.84208425 -0.00704267 -0.51508493
v 0.85795969 0.00825465 0.53434753
v -0.80781786 -0.00812830 -0.53597597
v -0.86692626 0.01231959 0.54831056
v -0.00227895 0.98319687 -0.01648962
v 0.01301186 -0.98513492 0.01086309
v -0.32232719 -0.80437377 0.50233372
v 0.31339077 -0.79158842 0.50447191
v -0.29543872 0.81036858 0.50578239
v 0.32164276 0.77987388 0.49360658
v -0.00940745 -0.01277756 0.99449715
v -0.27911817 -0.82633362 -0.48063443
v 0.27535960 -0.81571469 -0.49674494
v -0.29729255 0.82324153 -0.48413306
v 0.30204249 0.79976996 -0.48284048
v -0.00382609 -0.02551373 -1.02266574
v 0.79062795 0.50994321 -0.30616848
v 0.82282670 -0.50854505 -0.30584620
v 0.51251181 -0.31520393 -0.79988149
v 0.48676148 0.30175592 -0.81665175
v 0.78510020 0.50973945 0.29962895
v 0.80926688 -0.49038507 0.31794762
v 0.51330770 -0.31098670 0.80055103
v 0.49840564 0.27527031 0.78007474
v 0.97354601 -0.01994494 0.00799548
v -0.82712658 0.49243675 -0.28303243
v -0.81614227 -0.48524969 -0.32768935
v -0.50410875 -0.32801744 -0.81579766
v -0.48319384 0.27447059 -0.80032852
v -0.80426228 0.48811700 0.28009584
v -0.80757440 -0.51058985 0.31367052
v -0.49956296 -0.27698142 0.80422988
v -0.52046995 0.31260251 0.81341693
v -0.97281625 0.01670222 0.00713742
f 1 38 17
f 38 12 41
f 17 41 6
f 38 41 17
f 1 17 13
f 17 6 18
f 13 18 2
f 17 18 13
f 1 13 22
f 13 2 23
f 22 23 8
f 13 23 22
f 1 22 34
f 22 8 37
f 34 37 11
f 22 37 34
f 1 34 38
f 34 11 42
f 38 42 12
f 34 42 38
f 2 18 29
f 18 6 32
f 29 32 10
f 18 32 29
f 6 41 19
f 41 12 40
f 19 40 5
f 41 40 19
f 12 42 39
f 42 11 35
f 39 35 3
f 42 35 39
f 11 37 36
f 37 8 24
f 36 24 7
f 37 24 36
f 8 23 28
f 23 2 25
f 28 25 9
f 23 25 28
f 4 30 16
f 30 10 31
f 16 31 5
f 30 31 16
f 4 16 14
f 16 5 15
f 14 15 3
f 16 15 14
f 4 14 21
f 14 3 20
f 21 20 7
f 14 20 21
f 4 21 26
f 21 7 27
f 26 27 9
f 21 27 26
f 4 26 30
f 26 9 33
f 30 33 10
f 26 33 30
f 5 31 19
f 31 10 32
f 19 32 6
f 31 32 19
f 3 15 39
f 15 5 40
f 39 40 12
f 15 40 39
f 7 20 36
f 20 3 35
f 36 35 11
f 20 35 36
f 9 27 28
f 27 7 24
f 28 24 8
f 27 24 28
f 10 33 29
f 33 9 25
f 29 25 2
f 33 25 29

